<svg width="22" height="21" viewBox="0 0 22 21" fill="none" xmlns="http://www.w3.org/2000/svg">
<path d="M15.5582 0C17.0864 0 18.3804 0.648819 19.4405 1.94646C20.5005 3.2441 21.0301 4.81006 21.0294 6.64436C21.0294 7.06712 20.9986 7.48773 20.9371 7.90619C20.8755 8.32464 20.7739 8.74223 20.6321 9.15896H14.6329L12.6468 5.85878C12.5495 5.68623 12.4132 5.54602 12.2379 5.43817C12.0627 5.33032 11.8777 5.2764 11.683 5.2764C11.4299 5.2764 11.2013 5.36268 10.9972 5.53524C10.7931 5.7078 10.6518 5.92349 10.5731 6.18233L8.9959 11.4238L7.97364 9.74135C7.87628 9.56879 7.73998 9.42858 7.56473 9.32073C7.38949 9.21289 7.20451 9.15896 7.00979 9.15896H0.397221C0.255468 8.75949 0.153826 8.35009 0.0922956 7.93078C0.0307652 7.51146 0 7.09387 0 6.67801C0 4.82042 0.524955 3.24323 1.57487 1.94646C2.62478 0.649682 3.9138 0.000862791 5.44193 0C6.24105 0 7.00979 0.180323 7.74815 0.54097C8.48574 0.900754 9.14583 1.42231 9.72842 2.10564L10.5147 3.0271L11.2566 2.15612C11.8493 1.45553 12.5183 0.92103 13.2637 0.552618C14.0091 0.184206 14.7739 0 15.5582 0ZM10.5147 20.8312C10.3293 20.8312 10.1432 20.7903 9.95624 20.7083C9.76931 20.6263 9.60964 20.5029 9.47724 20.3382L2.09826 12.133C2.04141 12.07 1.98689 12.007 1.9347 11.9441C1.88252 11.8811 1.82956 11.8155 1.77581 11.7473H6.36723L8.35333 15.0475C8.45069 15.2201 8.58699 15.3603 8.76224 15.4681C8.93748 15.576 9.12246 15.6299 9.31718 15.6299C9.57031 15.6299 9.80397 15.5436 10.0182 15.3711C10.2323 15.1985 10.3784 14.9828 10.4563 14.724L12.0335 9.48251L13.0265 11.165C13.1434 11.3375 13.2894 11.4777 13.4646 11.5856C13.6399 11.6934 13.8249 11.7473 14.0196 11.7473H19.2454L19.0888 11.9363L18.9311 12.1252L11.5241 20.3394C11.3753 20.5034 11.2164 20.6263 11.0474 20.7083C10.8784 20.7903 10.7008 20.8312 10.5147 20.8312Z" fill="black"/>
</svg>
